<svg id="a" xmlns="http://www.w3.org/2000/svg" viewBox="0 0 489.19 212.31"><defs></defs><g id="b"><path id="c" class="v" d="M326.19 147.13c0 25.64-15.8 56.58-54.38 56.58-9.97 0-19.55-2.2-25.38-6.09l9.58-15.41c4.79 3.24 10.49 4.4 16.96 4.4 17.87 0 27.32-11.65 30.3-25.51-5.44 5.05-12.43 7.25-20.33 7.25-15.92 0-29.65-9.32-29.65-26.15 0-19.81 15.54-32.24 36.38-32.24s36.51 12.69 36.51 37.16Zm-21.36-8.68c0-6.86-5.31-12.82-14.89-12.82-9.06 0-15.79 5.57-15.79 14.76 0 7.77 5.7 12.3 14.24 12.3 9.84 0 16.44-5.96 16.44-14.24Z"/><path id="d" class="v" d="m402.96 125.12-25.38 23.69c12.56 2.85 19.81 11.14 19.81 22.92 0 18.51-17.48 31.98-42.08 31.98-13.34 0-25.38-3.76-33.15-10.49l10.1-15.41c5.96 5.18 14.89 8.29 24.47 8.29 12.43 0 19.42-4.79 19.42-13.08 0-6.6-4.92-9.71-14.89-9.71h-9.58l2.72-13.85 22.53-21.1h-38.32l3.5-16.83h63.44l-2.59 13.6Z"/><path id="e" class="v" d="M409.17 169.4c0-32.76 19.16-59.43 47.26-59.43 20.07 0 32.76 12.69 32.76 34.31 0 32.76-19.16 59.43-47.26 59.43-20.07 0-32.76-12.69-32.76-34.31Zm58.91-24.6c0-11.78-5.18-17.09-13.59-17.09-15.93 0-24.21 24.34-24.21 41.17 0 11.78 5.18 17.09 13.6 17.09 15.92 0 24.21-24.34 24.21-41.17Z"/></g><g id="f"><g id="g"><path id="h" class="v" d="m40.63 101.2-3.17-4.85-3.32-4.51-1.19-3.12.08-2.32-1.63-2.26-11 1.61-11.72 2.52-8.66 15.12-.02.04v10.69l2.28 2.04 3.75 2.81 1.57-3.21.02-.04-.1-7.74.11-7.34 3.86-2.57 1.12 3.08v17.66l-3.16 3.64v4.93l6.2 5.17.06.04 8.59-.68 2.64-5.01.03-.06-1.23-5.88-.33-7.43V97.61l.75-1.11 5.76 5.19.01 6.73 1.38 5.96.02.09 8.4 2.72 1.73-9.51v-2.72l-2.83-3.76z"/><path id="i" class="v" d="m156.72 87.9.48 12.02-18.53 12.95-39.23-18.29-33.26-3.15-14.44-10.92-14.14-8.87-6.58-2.1-10.53 1.48-5.9 3.96-2.51 4.83 5.05-.85 11.54-2.05 5.58 1.36 19.49 13.46 5.69 6.61.04.05 27.86 3.28 44.1 27.77 11.52 54.78-3.46 27.11 38.64-32.26.07-.06-3.04-26.63 18.54-17.72 20.35 6.15v-29.47L156.72 87.9z"/><path id="j" class="v" d="M136.76 81.19c-4.43 0-8.04 3.61-8.04 8.04s3.61 8.04 8.04 8.04 8.04-3.61 8.04-8.04-3.61-8.04-8.04-8.04Z"/><path id="k" class="v" d="m129.63 182.53-9.6-44.74-.02-.07-37.19-23.41-19.49-2.47-.06-.01-37.14 26.36-12.34.75-11.23-7.16 1.63 9.48 3.05 7.23 7.63 8.03 3.55-6.56 4.36-3.85 13.39-3.15h23.52l15.08 5.01 16.7 8.75 13.02 15.97-2.69 38.87 27.83-29.03z"/><path id="l" class="v" d="M159.64 212.31h-10.53l37.1-30.98-3.04-26.66 11.32-10.82 26.61 8.04v-47.13l-83.18-34.02-15.01 7-5.9 13.37-11.78-5.85-35.01.03-6.89-6.55 7.61-5.27 29.82-12.55h10.97l20.82-16.83 30.98-4.74 39.71.95 11.71 13.43 39.53 28.73 30.28-6.36 9.78-17 102.23 37.04-19.98-.06-79.23-28.7-8.46 14.7-36.16 7.6-42.57-30.93-10.26-11.77-41.84-1.01-22.9 4.52-21.25 17.18h-12L76.3 78.53l30.51-.02 6.88 3.42 4.07-9.23 19.98-9.32 90.11 36.85v60.75l-31.55-9.53-6.05 5.78 3.08 26.95-33.69 28.13z"/><g id="m"><path id="n" class="v" d="m79.76 158.02-1.07 1.51 3.84 10.28 3.87-5.02v-2.44l-6.64-4.33z"/><path id="o" class="v" d="m67.77 151.4-6.15-.01v12l6.67 13.62 2.79-1.86v-9.6l2.54-6.09.02-4.64-5.87-3.42z"/><path id="p" class="v" d="m37.98 149.89-1.57 1.07 1.01 3.81v2.02l3.41 3.71.57-2.32 1.19-2.22.02-3.49-4.63-2.58z"/><path id="q" class="v" d="m51.21 149.13-.04-.05h-4.93l-.72 1.78.93 1.51v2.46l3.06 5.12 4.26-6.17.03-.05v-2.34l-2.59-2.26z"/><path id="r" class="v" d="m26.69 151.82-6.02 4.66-.07.05v7.31l6.67 13.62 2.79-1.86V166l2.54-6.1.01-4.64-5.92-3.44z"/></g></g><g id="s"><path id="t" class="v" d="M211.95 17.22 196.79 2.07l-24.55 16.58-.05.03-4.23 12.44 11.75-.01 2.99-9.5 11.39-8.38 18.6 11.63.55-5.5-1.29-2.14z"/><path class="v" d="m273.12 44.34-.13-.07-8.56 11.7-.03.04-.89 15.02-.01.21 16.93-3.43.08-.02 7.21-15.33.06-.15-14.66-7.97zm16.98-4.29-2.73-21.73v-.07L263.7.28v13.74l12.59 11.61-.72 8.25 14.53 6.17zM253.16 13.9 253.15 0l-29.74 19.9.62 24.55 16.56-6.15-6.95-9.78 19.45-14.57.07-.05zm-.44 53.03-.25-.18-20.16-14.67.3-.1 21.62-7.85-1.51 22.8z" id="u"/></g></g></svg>